<svg width="310" height="158" viewBox="0 0 310 158" fill="none" xmlns="http://www.w3.org/2000/svg">
<path d="M157.413 0V0.350006H142.275L93.8875 133.875H93.625L47.25 0.350006H35V0H85.75V0.350006H66.5L102.113 109.9L141.75 0.350006H119V0H157.413Z" fill="black"/>
<path d="M212.77 0C225.778 0 236.978 2.8875 246.37 8.66251C255.82 14.3792 263.082 22.1958 268.157 32.1125C273.291 42.0292 275.857 53.2 275.857 65.625C275.857 74.9583 274.312 83.6208 271.22 91.6125C268.187 99.5458 263.87 106.488 258.27 112.438C252.67 118.388 246.02 123.025 238.32 126.35C230.62 129.617 222.103 131.25 212.77 131.25H163.857V130.9H179.52V0.350006H163.857V0H212.77ZM196.232 130.9H212.77C220.82 130.9 227.587 129.033 233.07 125.3C238.553 121.508 242.957 116.492 246.282 110.25C249.607 103.95 251.999 96.9208 253.457 89.1625C254.916 81.4042 255.645 73.5292 255.645 65.5375C255.645 57.6042 254.828 49.7875 253.195 42.0875C251.562 34.3292 249.024 27.3292 245.582 21.0875C242.199 14.7875 237.795 9.77083 232.37 6.0375C226.945 2.24584 220.412 0.350006 212.77 0.350006H196.232V130.9Z" fill="black"/>
<path d="M0 52H310V81H0V52Z" fill="#F5F5F5"/>
<path d="M116.288 74L110.248 60H113.748L119.028 72.4H116.968L122.328 60H125.548L119.488 74H116.288Z" fill="black"/>
<path d="M129.697 65.64H136.437V68.16H129.697V65.64ZM129.937 71.4H137.557V74H126.717V60H137.297V62.6H129.937V71.4Z" fill="black"/>
<path d="M146.895 74.24C145.788 74.24 144.768 74.0667 143.835 73.72C142.915 73.36 142.108 72.8533 141.415 72.2C140.735 71.5467 140.201 70.78 139.815 69.9C139.441 69.02 139.255 68.0533 139.255 67C139.255 65.9467 139.441 64.98 139.815 64.1C140.201 63.22 140.741 62.4533 141.435 61.8C142.128 61.1467 142.941 60.6467 143.875 60.3C144.808 59.94 145.835 59.76 146.955 59.76C148.195 59.76 149.308 59.9667 150.295 60.38C151.295 60.7933 152.135 61.3933 152.815 62.18L150.735 64.1C150.228 63.5667 149.675 63.1733 149.075 62.92C148.475 62.6533 147.821 62.52 147.115 62.52C146.435 62.52 145.815 62.6267 145.255 62.84C144.695 63.0533 144.208 63.36 143.795 63.76C143.395 64.16 143.081 64.6333 142.855 65.18C142.641 65.7267 142.535 66.3333 142.535 67C142.535 67.6533 142.641 68.2533 142.855 68.8C143.081 69.3467 143.395 69.8267 143.795 70.24C144.208 70.64 144.688 70.9467 145.235 71.16C145.795 71.3733 146.408 71.48 147.075 71.48C147.715 71.48 148.335 71.38 148.935 71.18C149.548 70.9667 150.141 70.6133 150.715 70.12L152.555 72.46C151.795 73.0333 150.908 73.4733 149.895 73.78C148.895 74.0867 147.895 74.24 146.895 74.24ZM149.595 72.04V66.78H152.555V72.46L149.595 72.04Z" fill="black"/>
<path d="M155.564 74V60H161.924C163.444 60 164.784 60.2933 165.944 60.88C167.104 61.4533 168.011 62.26 168.664 63.3C169.318 64.34 169.644 65.5733 169.644 67C169.644 68.4133 169.318 69.6467 168.664 70.7C168.011 71.74 167.104 72.5533 165.944 73.14C164.784 73.7133 163.444 74 161.924 74H155.564ZM158.804 71.34H161.764C162.698 71.34 163.504 71.1667 164.184 70.82C164.878 70.46 165.411 69.9533 165.784 69.3C166.171 68.6467 166.364 67.88 166.364 67C166.364 66.1067 166.171 65.34 165.784 64.7C165.411 64.0467 164.878 63.5467 164.184 63.2C163.504 62.84 162.698 62.66 161.764 62.66H158.804V71.34Z" fill="black"/>
<path d="M175.068 65.64H181.808V68.16H175.068V65.64ZM175.308 71.4H182.928V74H172.088V60H182.668V62.6H175.308V71.4Z" fill="black"/>
<path d="M189.51 74L183.47 60H186.97L192.25 72.4H190.19L195.55 60H198.77L192.71 74H189.51Z" fill="black"/>
<path d="M128.014 157.096C127.182 157.096 126.382 156.963 125.614 156.696C124.856 156.419 124.27 156.067 123.854 155.64L124.318 154.728C124.712 155.112 125.24 155.437 125.902 155.704C126.574 155.96 127.278 156.088 128.014 156.088C128.718 156.088 129.288 156.003 129.726 155.832C130.174 155.651 130.499 155.411 130.702 155.112C130.915 154.813 131.022 154.483 131.022 154.12C131.022 153.683 130.894 153.331 130.638 153.064C130.392 152.797 130.067 152.589 129.662 152.44C129.256 152.28 128.808 152.141 128.318 152.024C127.827 151.907 127.336 151.784 126.846 151.656C126.355 151.517 125.902 151.336 125.486 151.112C125.08 150.888 124.75 150.595 124.494 150.232C124.248 149.859 124.126 149.373 124.126 148.776C124.126 148.221 124.27 147.715 124.558 147.256C124.856 146.787 125.31 146.413 125.918 146.136C126.526 145.848 127.304 145.704 128.254 145.704C128.883 145.704 129.507 145.795 130.126 145.976C130.744 146.147 131.278 146.387 131.726 146.696L131.326 147.64C130.846 147.32 130.334 147.085 129.79 146.936C129.256 146.787 128.739 146.712 128.238 146.712C127.566 146.712 127.011 146.803 126.574 146.984C126.136 147.165 125.811 147.411 125.598 147.72C125.395 148.019 125.294 148.36 125.294 148.744C125.294 149.181 125.416 149.533 125.662 149.8C125.918 150.067 126.248 150.275 126.654 150.424C127.07 150.573 127.523 150.707 128.014 150.824C128.504 150.941 128.99 151.069 129.47 151.208C129.96 151.347 130.408 151.528 130.814 151.752C131.23 151.965 131.56 152.253 131.806 152.616C132.062 152.979 132.19 153.453 132.19 154.04C132.19 154.584 132.04 155.091 131.742 155.56C131.443 156.019 130.984 156.392 130.366 156.68C129.758 156.957 128.974 157.096 128.014 157.096Z" fill="black"/>
<path d="M136.789 157V146.824H132.853V145.8H141.909V146.824H137.973V157H136.789Z" fill="black"/>
<path d="M148.094 157.096C146.664 157.096 145.539 156.685 144.718 155.864C143.896 155.043 143.486 153.827 143.486 152.216V145.8H144.67V152.168C144.67 153.491 144.968 154.467 145.566 155.096C146.163 155.725 147.006 156.04 148.094 156.04C149.192 156.04 150.04 155.725 150.638 155.096C151.235 154.467 151.534 153.491 151.534 152.168V145.8H152.686V152.216C152.686 153.827 152.275 155.043 151.454 155.864C150.643 156.685 149.523 157.096 148.094 157.096Z" fill="black"/>
<path d="M156.254 157V145.8H160.814C162.008 145.8 163.054 146.04 163.95 146.52C164.856 146.989 165.56 147.645 166.062 148.488C166.563 149.331 166.814 150.301 166.814 151.4C166.814 152.499 166.563 153.469 166.062 154.312C165.56 155.155 164.856 155.816 163.95 156.296C163.054 156.765 162.008 157 160.814 157H156.254ZM157.438 155.976H160.75C161.742 155.976 162.6 155.784 163.326 155.4C164.062 155.005 164.632 154.467 165.038 153.784C165.443 153.091 165.646 152.296 165.646 151.4C165.646 150.493 165.443 149.699 165.038 149.016C164.632 148.333 164.062 147.8 163.326 147.416C162.6 147.021 161.742 146.824 160.75 146.824H157.438V155.976Z" fill="black"/>
<path d="M169.472 157V145.8H170.656V157H169.472Z" fill="black"/>
<path d="M179.197 157.096C178.354 157.096 177.57 156.957 176.845 156.68C176.13 156.392 175.506 155.992 174.973 155.48C174.45 154.957 174.039 154.355 173.741 153.672C173.453 152.979 173.309 152.221 173.309 151.4C173.309 150.579 173.453 149.827 173.741 149.144C174.039 148.451 174.45 147.848 174.973 147.336C175.506 146.813 176.13 146.413 176.845 146.136C177.559 145.848 178.343 145.704 179.197 145.704C180.039 145.704 180.818 145.848 181.533 146.136C182.247 146.413 182.866 146.808 183.389 147.32C183.922 147.832 184.333 148.435 184.621 149.128C184.919 149.821 185.069 150.579 185.069 151.4C185.069 152.221 184.919 152.979 184.621 153.672C184.333 154.365 183.922 154.968 183.389 155.48C182.866 155.992 182.247 156.392 181.533 156.68C180.818 156.957 180.039 157.096 179.197 157.096ZM179.197 156.04C179.869 156.04 180.487 155.928 181.053 155.704C181.629 155.469 182.125 155.144 182.541 154.728C182.967 154.301 183.298 153.811 183.533 153.256C183.767 152.691 183.885 152.072 183.885 151.4C183.885 150.728 183.767 150.115 183.533 149.56C183.298 148.995 182.967 148.504 182.541 148.088C182.125 147.661 181.629 147.336 181.053 147.112C180.487 146.877 179.869 146.76 179.197 146.76C178.525 146.76 177.901 146.877 177.325 147.112C176.749 147.336 176.247 147.661 175.821 148.088C175.405 148.504 175.074 148.995 174.829 149.56C174.594 150.115 174.477 150.728 174.477 151.4C174.477 152.061 174.594 152.675 174.829 153.24C175.074 153.805 175.405 154.301 175.821 154.728C176.247 155.144 176.749 155.469 177.325 155.704C177.901 155.928 178.525 156.04 179.197 156.04Z" fill="black"/>
</svg>
